<?xml version="1.0" encoding="UTF-8"?>
<svg version="1.1" xmlns="http://www.w3.org/2000/svg" width="512" height="512">
<path d="M0 0 C1.46286942 0.00406357 1.46286942 0.00406357 2.95529175 0.00820923 C18.54510288 0.07361168 33.488128 1.0305344 48.75 4.4375 C49.62720703 4.62473633 50.50441406 4.81197266 51.40820312 5.00488281 C94.46800473 14.34257013 134.0579883 34.82463461 166.12890625 65.02734375 C168.69767935 67.44842403 168.69767935 67.44842403 171.38671875 69.52734375 C173.53008304 71.25974893 175.23025402 72.96204391 177 75.0625 C179.62776045 78.14430113 182.31726425 81.14736334 185.0625 84.125 C210.16110785 112.0689661 239.75 158.56392513 239.75 197.4375 C227.35846482 200.75078994 214.96688468 204.06391167 202.57525349 207.3768425 C196.81569222 208.91667944 191.05614412 210.45656554 185.29663086 211.99658203 C154.78417579 220.1551551 124.26914243 228.30397665 93.75 236.4375 C91.46915853 233.0162378 91.16444083 230.72525583 90.5 226.6875 C86.15929051 203.27156256 72.65966351 182.38420549 53.10498047 168.83618164 C31.77205974 154.70100124 7.40559627 149.31618889 -17.83178711 153.95678711 C-34.61259826 157.41227799 -49.38284025 165.14417467 -62.25 176.4375 C-62.99894531 177.09105469 -63.74789062 177.74460938 -64.51953125 178.41796875 C-82.22363974 194.94387037 -91.40257503 218.69100766 -92.33447266 242.60522461 C-92.68759743 266.89441152 -83.47615163 291.3067793 -66.72167969 308.99072266 C-61.98414278 313.64809553 -56.66252711 317.60621571 -51.25 321.4375 C-50.40695313 322.03433594 -49.56390625 322.63117188 -48.6953125 323.24609375 C-29.0974262 335.94842747 -4.09128106 339.31285138 18.625 335.3125 C25.17875328 333.80564143 31.24189114 331.47190476 37.41015625 328.83984375 C40.46519552 327.55708457 43.60661609 326.48529464 46.75 325.4375 C46.75 347.5475 46.75 369.6575 46.75 392.4375 C43.12 392.4375 39.49 392.4375 35.75 392.4375 C12.56021679 394.68581693 -7.37476841 405.81578589 -22.7265625 423.25 C-37.65838638 442.13285632 -41.85081318 461.84418267 -42.25 485.4375 C-98.09428183 477.96930263 -154.61998691 444.58466695 -189.1875 400.1875 C-190.48677666 398.48099448 -191.77338484 396.76626749 -193.05029297 395.04296875 C-194.18779782 393.52074003 -195.3605849 392.02506382 -196.53515625 390.53125 C-235.02156928 341.11659623 -249.97091593 276.45740581 -243.47631836 214.77172852 C-242.89537709 210.29173879 -242.12778708 205.86823476 -241.25 201.4375 C-241.05132324 200.41624023 -240.85264648 199.39498047 -240.64794922 198.34277344 C-233.1173859 160.71816122 -217.68852126 125.84596992 -194.25 95.4375 C-193.57324219 94.54675781 -192.89648438 93.65601562 -192.19921875 92.73828125 C-180.88628853 78.19308526 -167.72147638 64.80794573 -153.25 53.4375 C-152.25226563 52.63441406 -151.25453125 51.83132812 -150.2265625 51.00390625 C-141.98577437 44.43803322 -133.30151598 38.81630244 -124.25 33.4375 C-123.56873047 33.025 -122.88746094 32.6125 -122.18554688 32.1875 C-109.16980673 24.35111835 -95.46360786 18.73511756 -81.25 13.4375 C-80.51652344 13.16035156 -79.78304687 12.88320312 -79.02734375 12.59765625 C-71.39667871 9.74579154 -63.60521783 7.68177689 -55.6875 5.8125 C-54.47670776 5.52088989 -54.47670776 5.52088989 -53.24145508 5.22338867 C-35.64076569 1.26713941 -17.99760322 -0.11843706 0 0 Z M-18.25 19.4375 C-18.95640625 19.61410156 -19.6628125 19.79070313 -20.390625 19.97265625 C-21.00421875 20.12605469 -21.6178125 20.27945312 -22.25 20.4375 C-21.65461994 32.80590325 -19.89015748 44.96280539 -18.125 57.20703125 C-17.81463484 59.38176678 -17.50458154 61.55654683 -17.19482422 63.73136902 C-16.54903736 68.25764793 -15.89982074 72.78341732 -15.24804688 77.30883789 C-14.41119685 83.12096839 -13.58259945 88.9342406 -12.75643921 94.74789906 C-12.11957396 99.22368983 -11.47866992 103.69889481 -10.83648682 108.1739254 C-10.52907618 110.31927054 -10.22288109 112.46479021 -9.91790771 114.61048317 C-9.49362257 117.59094218 -9.06397741 120.57057842 -8.6328125 123.55004883 C-8.50706848 124.4408313 -8.38132446 125.33161377 -8.25177002 126.24938965 C-8.00616653 130.16680161 -8.00616653 130.16680161 -6.25 133.4375 C-4.14360273 133.3993087 -2.03841698 133.28157557 0.0625 133.125 C1.21363281 133.04636719 2.36476562 132.96773438 3.55078125 132.88671875 C7.0065251 132.57465243 7.0065251 132.57465243 10.75 130.4375 C5.47 93.4775 0.19 56.5175 -5.25 18.4375 C-11.99655905 18.35875435 -11.99655905 18.35875435 -18.25 19.4375 Z M-133.25 60.4375 C-131.81746582 64.30490014 -130.01204955 67.72638123 -127.90625 71.26953125 C-127.24222168 72.3894043 -126.57819336 73.50927734 -125.89404297 74.66308594 C-125.17958352 75.85885635 -124.46489777 77.05449158 -123.75 78.25 C-123.01569868 79.48334541 -122.28148698 80.71674417 -121.54736328 81.95019531 C-117.43107033 88.85380762 -113.26201303 95.72078368 -108.96972656 102.51660156 C-105.41889375 108.14095626 -101.95474904 113.8161975 -98.5 119.5 C-97.91484619 120.46091553 -97.32969238 121.42183105 -96.72680664 122.41186523 C-93.58181157 127.58130369 -90.45458064 132.76070959 -87.34765625 137.953125 C-86.71375977 139.00749756 -86.07986328 140.06187012 -85.42675781 141.14819336 C-84.20583129 143.1796066 -82.99012885 145.21417096 -81.78027344 147.25219727 C-81.23016602 148.16541748 -80.68005859 149.0786377 -80.11328125 150.01953125 C-79.63157471 150.82624268 -79.14986816 151.6329541 -78.65356445 152.46411133 C-77.23752437 154.70331695 -77.23752437 154.70331695 -74.25 156.4375 C-73.93289062 155.94121094 -73.61578125 155.44492188 -73.2890625 154.93359375 C-62.52029516 139.25641035 -43.88340245 134.83622836 -26.25 131.4375 C-26.87352039 120.45609314 -28.95881401 109.65916451 -30.8125 98.8359375 C-31.16765273 96.74659461 -31.52254768 94.65720789 -31.87719727 92.56777954 C-32.61753984 88.21186915 -33.36089789 83.85648731 -34.10644531 79.50146484 C-35.06377764 73.90791758 -36.01361103 68.31312702 -36.96125793 62.71793175 C-37.69093238 58.41450277 -38.42444292 54.11173465 -39.15914917 49.80916214 C-39.51119399 47.74478773 -39.86204581 45.68020952 -40.21170044 43.61542892 C-40.69843503 40.74472707 -41.19029675 37.87495149 -41.68359375 35.00537109 C-41.90026199 33.71823212 -41.90026199 33.71823212 -42.12130737 32.40509033 C-42.48057949 28.60646091 -42.48057949 28.60646091 -44.25 25.4375 C-76.03811536 22.10575595 -109.5390749 41.27715648 -133.25 60.4375 Z " fill="#000000" transform="translate(249.25,-0.4375)"/>
<path d="M0 0 C0.09356782 27.66031083 0.16404022 55.32059784 0.20724869 82.98103523 C0.2278471 95.8251386 0.25591572 108.66914346 0.30175781 121.51318359 C0.34170882 132.71202598 0.36745257 143.91079699 0.37635398 155.10970867 C0.3815547 161.03584626 0.39372165 166.96177973 0.42292023 172.88785172 C0.45021986 178.47417113 0.45841568 184.06020376 0.45243073 189.64658356 C0.45352448 191.68866666 0.46139105 193.73076009 0.4768219 195.77278519 C0.63645303 218.00165396 -4.52885614 234.91866495 -20.2421875 251.34375 C-32.47410558 263.05430764 -48.80689545 271.19076954 -66 271 C-77.8582843 270.19507404 -87.11396967 266.89033691 -95.3125 258.11328125 C-97.82822079 254.96280684 -99.51220095 251.73130554 -101 248 C-101.5878125 246.63875 -101.5878125 246.63875 -102.1875 245.25 C-106.01056571 229.95773718 -102.85017493 214.13953244 -95.0234375 200.57421875 C-84.27325531 184.41095895 -69.33807957 171.94545539 -50.1394043 167.39477539 C-46.50939591 166.72494502 -42.93434969 166.61781725 -39.25 166.625 C-38.46939209 166.62516113 -37.68878418 166.62532227 -36.88452148 166.62548828 C-28.90609259 166.78146127 -21.69440054 168.53706631 -15 173 C-14.67 135.05 -14.34 97.1 -14 58 C-31.015625 62.516875 -31.015625 62.516875 -48.375 67.125 C-54.07366333 68.63767456 -54.07366333 68.63767456 -59.88745117 70.1809082 C-77.75812142 74.92861016 -95.62293101 79.69699234 -113.47511292 84.51379395 C-116.33846686 85.28627428 -119.20198291 86.05815072 -122.06555176 86.82983398 C-123.93970085 87.33494765 -125.81384638 87.84007451 -127.68798828 88.34521484 C-128.60401699 88.59210934 -129.5200457 88.83900383 -130.46383286 89.09337997 C-135.92569935 90.56608123 -141.38626695 92.0434938 -146.84600163 93.52407742 C-150.24729269 94.44539173 -153.64966469 95.36266305 -157.05232811 96.27889442 C-158.63411963 96.70579755 -160.21543201 97.13448053 -161.79622841 97.56505394 C-163.9536851 98.15252389 -166.11270661 98.73385273 -168.2722168 99.3137207 C-169.48177536 99.64120804 -170.69133392 99.96869537 -171.93754578 100.30610657 C-175 101 -175 101 -179 101 C-178.99631283 101.71892488 -178.99262566 102.43784977 -178.98882675 103.17856026 C-178.90023476 120.72504514 -178.83417372 138.27147273 -178.79275131 155.8181324 C-178.77218391 164.30380443 -178.74417564 172.78932657 -178.69824219 181.27490234 C-178.65819506 188.67662981 -178.63252495 196.07824863 -178.62364602 203.48008144 C-178.61846129 207.39417729 -178.60639914 211.30796252 -178.57707977 215.22195816 C-178.54962689 218.91724854 -178.54161416 222.6121048 -178.54756927 226.30748749 C-178.54596973 228.28725265 -178.5246051 230.26697217 -178.50231934 232.24661255 C-178.59463969 252.63013551 -187.17860022 269.64630455 -201.08203125 284.17578125 C-213.79877185 296.32628479 -229.60388831 302.67564236 -247.10961914 302.47094727 C-257.84283493 302.06300066 -266.30023533 298.60970894 -274 291 C-280.74520195 282.92642129 -283.57341207 274.19149892 -283.4375 263.75 C-283.42992676 262.92371094 -283.42235352 262.09742188 -283.41455078 261.24609375 C-282.98436276 245.09363239 -275.43219813 231.92543433 -265 220 C-264.16855469 219.04287109 -264.16855469 219.04287109 -263.3203125 218.06640625 C-253.45810273 207.47278857 -238.00323237 199.38937627 -223.44921875 198.6640625 C-221.86219673 198.63473423 -220.27479035 198.62210583 -218.6875 198.625 C-217.85734375 198.62516113 -217.0271875 198.62532227 -216.171875 198.62548828 C-208.20239425 198.77312882 -201.66558082 200.55627945 -195 205 C-194.505 128.77 -194.505 128.77 -194 51 C-121.51439991 31.44039363 -121.51439991 31.44039363 -89.19763184 22.81195068 C-83.95151125 21.41111825 -78.70560219 20.00949376 -73.45978928 18.60750961 C-69.14120201 17.45335005 -64.82244157 16.29984973 -60.50323486 15.14801025 C-52.44507587 12.99795329 -44.38978058 10.83817719 -36.34141731 8.65169716 C-32.52863629 7.61603383 -28.71493736 6.58377193 -24.90122604 5.55154037 C-23.08029266 5.05750703 -21.2598508 4.56165803 -19.43992996 4.06390762 C-16.92647077 3.37652873 -14.41143754 2.69521952 -11.89599609 2.01513672 C-10.78013689 1.70724779 -10.78013689 1.70724779 -9.64173508 1.39313889 C-6.26550264 0.4862556 -3.52793376 0 0 0 Z " fill="#000000" transform="translate(507,210)"/>
<path d="M0 0 C0.20596638 6.36335699 0.34421126 12.72583062 0.43945312 19.09179688 C0.47922943 21.24869895 0.53347274 23.40539202 0.60351562 25.56152344 C1.07878101 40.58829665 -0.45842779 51.87407706 -8 65 C-8.76787842 66.44802002 -8.76787842 66.44802002 -9.55126953 67.92529297 C-11 70 -11 70 -14.3359375 70.96875 C-15.67994935 71.16281236 -17.0266349 71.33894221 -18.375 71.5 C-35.27038826 74.10414047 -49.29292387 81.73072759 -62 93 C-62.69867188 93.60328125 -63.39734375 94.2065625 -64.1171875 94.828125 C-78.96697873 108.54479963 -86.40602104 127.33596593 -89 147 C-89.02912128 148.85405502 -89.05126212 150.70825035 -89.0625 152.5625 C-89.33342507 155.54771777 -89.65510291 156.68160946 -91.89013672 158.74487305 C-98.13057904 162.88118042 -104.47684628 166.68869876 -111.0625 170.25 C-111.99126953 170.765625 -112.92003906 171.28125 -113.87695312 171.8125 C-114.79541016 172.31265625 -115.71386719 172.8128125 -116.66015625 173.328125 C-117.87650757 173.99183105 -117.87650757 173.99183105 -119.11743164 174.66894531 C-122.94484515 176.43629167 -127.00058172 177.66686057 -131 179 C-131 131.48 -131 83.96 -131 35 C-122.00004698 31.62501762 -122.00004698 31.62501762 -118.64431763 30.73724365 C-117.87996399 30.53288193 -117.11561035 30.3285202 -116.32809448 30.1179657 C-115.51873444 29.90598038 -114.70937439 29.69399506 -113.87548828 29.47558594 C-112.99924805 29.24255264 -112.12300781 29.00951935 -111.22021484 28.76942444 C-108.33791897 28.00389288 -105.45413553 27.24413139 -102.5703125 26.484375 C-100.53643108 25.94529729 -98.5026499 25.40584127 -96.46896362 24.86602783 C-91.11070428 23.44476447 -85.75118464 22.02831357 -80.39135742 20.61297607 C-73.97659566 18.91818729 -67.56327732 17.21794722 -61.14977646 15.51839447 C-56.00501646 14.15514355 -50.8600329 12.79275446 -45.7144165 11.43273926 C-37.23690292 9.19111445 -28.76070897 6.94622188 -20.29980469 4.64257812 C-19.06704803 4.30736145 -17.83429138 3.97214478 -16.56417847 3.62677002 C-14.39420132 3.03457208 -12.22510797 2.43912035 -10.05715942 1.83953857 C-9.14352631 1.58988342 -8.22989319 1.34022827 -7.28857422 1.08300781 C-6.52133026 0.87089661 -5.7540863 0.6587854 -4.96359253 0.44024658 C-3 0 -3 0 0 0 Z " fill="#000000" transform="translate(476,290)"/>
<path d="M0 0 C11.3329077 11.74796642 19.57323349 27.14237356 19.640625 43.85546875 C19.57875 44.74234375 19.516875 45.62921875 19.453125 46.54296875 C17.156588 47.69123725 15.86999333 47.6585805 13.3203125 47.640625 C12.51464844 47.63740234 11.70898438 47.63417969 10.87890625 47.63085938 C9.61626953 47.61829102 9.61626953 47.61829102 8.328125 47.60546875 C7.47863281 47.60095703 6.62914062 47.59644531 5.75390625 47.59179688 C3.65361591 47.57999749 1.5533617 47.56206181 -0.546875 47.54296875 C-0.5268895 48.12655151 -0.50690399 48.71013428 -0.48631287 49.31140137 C-0.28648403 55.41086991 -0.15117721 61.50940301 -0.05249023 67.61132812 C-0.00735675 69.88515005 0.05396865 72.1587126 0.13208008 74.43164062 C0.24185101 77.70898451 0.29241924 80.98286587 0.33203125 84.26171875 C0.37848282 85.27036987 0.42493439 86.279021 0.47279358 87.3182373 C0.47590792 91.71817801 0.33626261 94.45198556 -2.49159241 97.94537354 C-15.52320914 109.71620831 -33.25572465 115.50492123 -50.69921875 114.91796875 C-69.36986163 113.09829188 -86.12729413 105.92615549 -98.546875 91.54296875 C-111.64458544 75.14265567 -114.67614457 57.06587473 -113.546875 36.54296875 C-112.96056908 32.63713666 -111.98714587 29.20911278 -110.546875 25.54296875 C-110.28003906 24.723125 -110.01320312 23.90328125 -109.73828125 23.05859375 C-107.26559076 15.98120409 -103.15180562 10.39806608 -98.546875 4.54296875 C-97.60328125 3.28226563 -97.60328125 3.28226563 -96.640625 1.99609375 C-87.09822602 -9.18417968 -72.74378564 -15.80486113 -58.546875 -18.45703125 C-57.38671875 -18.6890625 -57.38671875 -18.6890625 -56.203125 -18.92578125 C-35.59019652 -22.03183897 -14.92171861 -14.00670756 0 0 Z M-62.421875 34.29296875 C-66.40327284 39.28335097 -67.82681852 43.73293658 -67.421875 50.10546875 C-66.57900205 55.8118155 -63.86565928 59.51935589 -59.609375 63.29296875 C-54.06969572 67.3629372 -49.34188544 68.45048267 -42.546875 67.54296875 C-35.69844084 65.38675334 -31.81273709 61.42730376 -28.234375 55.29296875 C-26.59537375 48.73696376 -26.70526123 42.33470648 -30.0703125 36.3671875 C-33.52345049 32.10100908 -38.39128327 29.26149933 -43.546875 27.54296875 C-51.3862205 26.92811812 -57.03275565 28.52370406 -62.421875 34.29296875 Z " fill="#000000" transform="translate(296.546875,196.45703125)"/>
</svg>
